<svg width="357" height="100" viewBox="0 0 357 100" xmlns="http://www.w3.org/2000/svg">
  <g fill="none" fill-rule="evenodd">
    <path d="M183.373.622H.173l36.596 81.755 146.604-31.855V.622" fill="#CE0538"/>
    <path d="M55.674 17.165c-5.842 0-8.762 4.688-8.762 14.063 0 4.763.689 8.437 2.065 11.022 1.377 2.586 3.348 3.879 5.915 3.879 1.414 0 2.754-.52 4.019-1.554 1.45-1.182 2.622-2.922 3.516-5.215.632-1.85 1.413-2.774 2.343-2.774.744 0 1.32.307 1.73.917.41.613.615 1.64.615 3.086v.889c-.075.482-.112.834-.112 1.056-.15 1.557-.373 2.64-.67 3.253-.297.61-.893 1.25-1.785 1.918-2.121 1.149-3.238 1.742-3.35 1.778-2.381 1.038-4.706 1.557-6.975 1.557-4.428 0-7.963-1.758-10.603-5.274-2.643-3.516-3.962-8.25-3.962-14.203 0-5.728 1.366-10.37 4.1-13.923 2.736-3.554 6.317-5.33 10.744-5.33.744 0 1.423.056 2.037.167.613.11 1.832.428 3.656.949.63.223 1.152.334 1.562.334.112 0 .594-.092 1.45-.28.857-.184 1.396-.278 1.62-.278 1.227 0 1.84 1.08 1.84 3.237l.224 7.016c0 1.797-.688 2.695-2.064 2.695-1.34 0-2.104-.673-2.29-2.021-.372-2.657-1.031-4.484-1.98-5.476-.95-.992-2.576-1.488-4.883-1.488M97.543 17.78l-2.293-.001c-2.462 0-3.692-.808-3.692-2.426 0-.625.223-1.14.67-1.543.445-.405.984-.608 1.617-.608h9.823c1.749 0 2.623.875 2.623 2.625 0 .744-.243 1.254-.726 1.533-.484.28-1.415.419-2.791.419l-3.91 30.86c-.22 1.86-1.3 2.793-3.233 2.793-.781 0-1.38-.15-1.786-.448-.557-.41-1.06-1.301-1.508-2.678L87.762 35.19l-4.408 13.227c-.66 2.008-1.85 3.015-3.57 3.015-1.905 0-3.002-1.042-3.296-3.126L71.8 17.779c-1.226 0-2.11-.196-2.65-.586-.54-.39-.81-.977-.81-1.758 0-.67.263-1.21.783-1.618.522-.41 1.21-.615 2.066-.615h9.876c1.525 0 2.289.699 2.289 2.096 0 1.654-.982 2.48-2.946 2.48l-2-.002 2.969 22.273 3.682-11.043c.593-1.755 1.503-2.633 2.729-2.633 1.336 0 2.299.873 2.894 2.618l4.355 12.14 2.506-23.351M127.775 17.779h-4.128V45.57h6.418c.707 0 1.292.214 1.757.642.464.428.699.995.699 1.702 0 .67-.244 1.21-.726 1.619-.484.409-1.1.613-1.842.613h-18.64c-.782 0-1.415-.204-1.897-.613-.486-.41-.726-.985-.726-1.731 0-.67.223-1.208.669-1.618.446-.41 1.06-.614 1.842-.614h5.749V17.779h-5.97c-.672 0-1.222-.214-1.65-.641-.427-.428-.64-.977-.64-1.647 0-.706.223-1.264.669-1.674.446-.41 1.06-.614 1.842-.614h17.746c1.712 0 2.567.744 2.567 2.232 0 .93-.27 1.554-.81 1.87-.538.316-1.514.474-2.93.474" fill="#FFFFFE"/>
    <path d="M132.914 76.048h1.126c1.257 0 1.999-.556 1.999-1.443 0-.835-.636-1.365-1.854-1.365h-1.271v2.808Zm-1.325-3.974h2.265c1.828 0 3.589.292 3.589 2.504 0 1.125-.834 1.92-1.907 2.106v.026c.41.159.609.357.9.928l1.749 3.68h-1.51l-1.417-3.204c-.411-.9-.848-.9-1.55-.9h-.794v4.105h-1.325v-9.245ZM144.016 77.293c0-1.033-.61-1.881-1.682-1.881-1.22 0-1.722 1.007-1.815 1.88h3.497Zm.808 3.748c-.477.172-1.02.438-2.133.438-2.397 0-3.496-1.457-3.496-3.657 0-2 1.258-3.417 3.165-3.417 2.252 0 2.98 1.643 2.98 3.815h-4.821a2.21 2.21 0 0 0 2.225 2.252c.82 0 1.775-.424 2.08-.676v1.245ZM146.508 79.995c.49.318 1.193.477 1.55.477.569 0 1.272-.24 1.272-.967 0-1.232-2.928-1.126-2.928-3.02 0-1.404 1.047-2.08 2.385-2.08.582 0 1.059.119 1.549.266l-.106 1.086c-.278-.173-1.02-.345-1.311-.345-.636 0-1.192.265-1.192.82 0 1.379 2.927.982 2.927 3.14 0 1.444-1.153 2.107-2.358 2.107-.635 0-1.284-.067-1.854-.372l.066-1.112M156.537 77.293c0-1.033-.61-1.881-1.682-1.881-1.22 0-1.722 1.007-1.815 1.88h3.497Zm.808 3.748c-.477.172-1.02.438-2.133.438-2.397 0-3.496-1.457-3.496-3.657 0-2 1.258-3.417 3.165-3.417 2.252 0 2.98 1.643 2.98 3.815h-4.821a2.21 2.21 0 0 0 2.225 2.252c.82 0 1.775-.424 2.08-.676v1.245ZM163.546 78.1c-.265 0-.53-.026-.795-.026-.675 0-2.344.107-2.344 1.298 0 .716.689 1.1 1.259 1.1 1.23 0 1.88-.77 1.88-1.775V78.1Zm-3.695-3.06c.623-.37 1.364-.635 2.225-.635 1.934 0 2.716.954 2.716 2.795v2.795c0 .768.026 1.126.052 1.324h-1.165v-.874h-.027c-.291.41-.953 1.034-2.092 1.034-1.457 0-2.477-.636-2.477-2.107 0-1.695 1.854-2.225 3.139-2.225.49 0 .834 0 1.324.027 0-1.166-.423-1.762-1.67-1.762-.701 0-1.456.265-1.96.689l-.065-1.06ZM166.9 74.564h1.166v1.047h.026c.33-.702 1.046-1.206 1.76-1.206.372 0 .558.04.822.093v1.113a1.849 1.849 0 0 0-.688-.12c-1.112 0-1.841 1.06-1.841 2.755v3.073H166.9v-6.755M176.345 75.703a3.612 3.612 0 0 0-1.35-.291c-1.391 0-2.172 1.245-2.172 2.53 0 1.205.648 2.53 2.25 2.53.425 0 .955-.133 1.339-.384l.092 1.112c-.516.238-1.112.279-1.562.279-2.04 0-3.444-1.603-3.444-3.537 0-2.053 1.377-3.537 3.444-3.537.503 0 1.152.119 1.51.266l-.107 1.032M177.937 71.386h1.245v4.145h.027c.45-.715 1.23-1.126 2.17-1.126 1.749 0 2.532 1.087 2.532 2.902v4.012h-1.245v-3.497c0-1.575-.345-2.343-1.431-2.41-1.417 0-2.053 1.139-2.053 2.78v3.127h-1.245v-9.933M189.624 81.319h1.245v-6.755h-1.245v6.755Zm-.081-8.265h1.405V71.65h-1.405v1.404ZM192.896 74.564h1.205v1.074h.026c.372-.77 1.272-1.233 2.212-1.233 1.748 0 2.53 1.087 2.53 2.902v4.012h-1.244v-3.497c0-1.575-.345-2.343-1.431-2.41-1.417 0-2.053 1.139-2.053 2.78v3.127h-1.245v-6.755M200.489 79.995c.489.318 1.19.477 1.549.477.57 0 1.27-.24 1.27-.967 0-1.232-2.926-1.126-2.926-3.02 0-1.404 1.047-2.08 2.384-2.08.583 0 1.06.119 1.55.266l-.106 1.086c-.278-.173-1.02-.345-1.311-.345-.636 0-1.192.265-1.192.82 0 1.379 2.927.982 2.927 3.14 0 1.444-1.152 2.107-2.357 2.107-.636 0-1.285-.067-1.855-.372l.067-1.112M209.735 75.57h-1.788v3.697c0 .78.477 1.205 1.047 1.205.383 0 .662-.12.847-.24v1.06c-.278.08-.662.187-1.06.187-1.284 0-2.078-.61-2.078-1.961V75.57h-1.524v-1.007h1.524v-1.562l1.244-.397v1.959h1.788v1.007M211.459 81.319h1.246v-6.755h-1.246v6.755Zm-.08-8.265h1.405V71.65h-1.405v1.404ZM218.573 75.57h-1.788v3.697c0 .78.477 1.205 1.047 1.205.383 0 .662-.12.847-.24v1.06c-.278.08-.662.187-1.06.187-1.285 0-2.078-.61-2.078-1.961V75.57h-1.524v-1.007h1.524v-1.562l1.244-.397v1.959h1.788v1.007M226.11 81.319h-1.204v-1.073h-.028c-.37.769-1.271 1.233-2.211 1.233-1.75 0-2.53-1.086-2.53-2.901v-4.014h1.245v3.498c0 1.576.344 2.343 1.43 2.41 1.418 0 2.054-1.14 2.054-2.782v-3.126h1.245v6.755M231.822 75.57h-1.787v3.697c0 .78.476 1.205 1.046 1.205.383 0 .662-.12.847-.24v1.06c-.278.08-.662.187-1.06.187-1.284 0-2.078-.61-2.078-1.961V75.57h-1.524v-1.007h1.524v-1.562l1.245-.397v1.959h1.787v1.007M237.758 77.293c0-1.033-.61-1.881-1.682-1.881-1.22 0-1.722 1.007-1.815 1.88h3.497Zm.808 3.748c-.477.172-1.02.438-2.133.438-2.396 0-3.496-1.457-3.496-3.657 0-2 1.258-3.417 3.165-3.417 2.252 0 2.98 1.643 2.98 3.815h-4.821a2.211 2.211 0 0 0 2.226 2.252c.82 0 1.774-.424 2.079-.676v1.245ZM244.915 75.57h-1.59v-1.006h1.59v-.622c0-1.642.423-2.715 2.264-2.715.319 0 .583.04.835.08l-.053 1.006a1.963 1.963 0 0 0-.596-.08c-1.073 0-1.205.689-1.205 1.603v.728h1.788v1.007h-1.788v5.748h-1.245V75.57M252.122 80.472c1.457 0 2.106-1.325 2.106-2.53 0-1.285-.782-2.53-2.106-2.53-1.338 0-2.12 1.245-2.12 2.53 0 1.205.65 2.53 2.12 2.53Zm0-6.067c2.052 0 3.43 1.484 3.43 3.537 0 1.934-1.404 3.537-3.43 3.537-2.04 0-3.444-1.603-3.444-3.537 0-2.053 1.377-3.537 3.444-3.537ZM257.224 74.564h1.166v1.047h.026c.332-.702 1.046-1.206 1.76-1.206.372 0 .558.04.823.093v1.113a1.857 1.857 0 0 0-.69-.12c-1.111 0-1.84 1.06-1.84 2.755v3.073h-1.245v-6.755M265.716 74.564h1.166v.98h.027c.476-.78 1.152-1.14 2.145-1.14.78 0 1.564.399 1.92 1.313.464-.967 1.484-1.312 2.094-1.312 1.722 0 2.344 1.114 2.344 2.583v4.33h-1.246v-4.025c0-.834-.198-1.881-1.205-1.881-1.271 0-1.774 1.245-1.774 2.503v3.404h-1.245v-4.026c0-.834-.2-1.881-1.205-1.881-1.272 0-1.776 1.245-1.776 2.503v3.404h-1.245v-6.755M281.39 78.1c-.265 0-.53-.026-.794-.026-.676 0-2.345.107-2.345 1.298 0 .716.689 1.1 1.259 1.1 1.232 0 1.88-.77 1.88-1.775V78.1Zm-3.695-3.06c.623-.37 1.364-.635 2.225-.635 1.934 0 2.715.954 2.715 2.795v2.795c0 .768.027 1.126.054 1.324h-1.166v-.874h-.026c-.291.41-.955 1.034-2.093 1.034-1.457 0-2.477-.636-2.477-2.107 0-1.695 1.855-2.225 3.139-2.225.49 0 .835 0 1.324.027 0-1.166-.424-1.762-1.668-1.762-.702 0-1.457.265-1.961.689l-.066-1.06ZM288.333 75.57h-1.79v3.697c0 .78.479 1.205 1.048 1.205.384 0 .662-.12.848-.24v1.06c-.278.08-.662.187-1.06.187-1.285 0-2.08-.61-2.08-1.961V75.57h-1.522v-1.007h1.523v-1.562l1.244-.397v1.959h1.789v1.007M289.898 71.386h1.245v4.145h.026c.45-.715 1.232-1.126 2.172-1.126 1.748 0 2.53 1.087 2.53 2.902v4.012h-1.245v-3.497c0-1.575-.344-2.343-1.43-2.41-1.417 0-2.053 1.139-2.053 2.78v3.127h-1.245v-9.933M302.365 77.293c0-1.033-.61-1.881-1.683-1.881-1.22 0-1.722 1.007-1.814 1.88h3.497Zm.807 3.748c-.476.172-1.02.438-2.132.438-2.397 0-3.497-1.457-3.497-3.657 0-2 1.258-3.417 3.165-3.417 2.252 0 2.98 1.643 2.98 3.815h-4.82a2.21 2.21 0 0 0 2.225 2.252c.82 0 1.775-.424 2.079-.676v1.245ZM305.347 74.564h1.166v.98h.027c.476-.78 1.152-1.14 2.145-1.14.78 0 1.564.399 1.92 1.313.464-.967 1.484-1.312 2.094-1.312 1.72 0 2.343 1.114 2.343 2.583v4.33h-1.245v-4.025c0-.834-.198-1.881-1.205-1.881-1.271 0-1.774 1.245-1.774 2.503v3.404h-1.245v-4.026c0-.834-.2-1.881-1.205-1.881-1.272 0-1.776 1.245-1.776 2.503v3.404h-1.245v-6.755M321.153 78.1c-.265 0-.53-.026-.794-.026-.676 0-2.345.107-2.345 1.298 0 .716.689 1.1 1.259 1.1 1.23 0 1.88-.77 1.88-1.775V78.1Zm-3.695-3.06c.623-.37 1.364-.635 2.225-.635 1.934 0 2.715.954 2.715 2.795v2.795c0 .768.026 1.126.054 1.324h-1.166v-.874h-.027c-.291.41-.954 1.034-2.093 1.034-1.457 0-2.476-.636-2.476-2.107 0-1.695 1.854-2.225 3.139-2.225.49 0 .835 0 1.324.027 0-1.166-.424-1.762-1.668-1.762-.702 0-1.457.265-1.961.689l-.066-1.06ZM328.096 75.57h-1.788v3.697c0 .78.478 1.205 1.047 1.205.384 0 .662-.12.848-.24v1.06c-.28.08-.662.187-1.06.187-1.285 0-2.08-.61-2.08-1.961V75.57h-1.522v-1.007h1.523v-1.562l1.244-.397v1.959h1.788v1.007M329.82 81.319h1.245v-6.755h-1.245v6.755Zm-.08-8.265h1.404V71.65h-1.404v1.404ZM337.635 75.703a3.612 3.612 0 0 0-1.35-.291c-1.391 0-2.172 1.245-2.172 2.53 0 1.205.648 2.53 2.25 2.53.425 0 .955-.133 1.339-.384l.092 1.112c-.516.238-1.112.279-1.562.279-2.04 0-3.444-1.603-3.444-3.537 0-2.053 1.378-3.537 3.444-3.537.503 0 1.152.119 1.51.266l-.107 1.032M338.724 79.995c.489.318 1.192.477 1.549.477.57 0 1.27-.24 1.27-.967 0-1.232-2.925-1.126-2.925-3.02 0-1.404 1.047-2.08 2.383-2.08.583 0 1.06.119 1.55.266l-.105 1.086c-.28-.173-1.021-.345-1.312-.345-.635 0-1.192.265-1.192.82 0 1.379 2.928.982 2.928 3.14 0 1.444-1.153 2.107-2.358 2.107-.636 0-1.285-.067-1.854-.372l.066-1.112M350.953 75.677c.555-.265 1.39-.834 1.39-1.615 0-.848-.464-1.14-1.1-1.14-.61 0-1.112.397-1.112 1.192 0 .622.424 1.126.822 1.563Zm.039 4.795c.86 0 1.418-.557 1.709-.888l-2.226-2.61c-.701.478-1.298.915-1.298 1.829 0 1.019.862 1.669 1.815 1.669Zm4.265-4.146c-.12 1.496-.53 2.358-1.06 3.165l1.616 1.828h-1.655l-.755-.9c-.662.755-1.471 1.06-2.65 1.06-1.827 0-2.98-1.034-2.98-2.583 0-1.405.822-2.2 2.066-2.703-.49-.595-.953-1.217-.953-2.105 0-1.483 1.086-2.172 2.41-2.172 1.205 0 2.292.636 2.292 2.092 0 1.179-1.047 1.973-2.026 2.41l1.88 2.146c.358-.57.504-1.178.57-2.238h1.245ZM135.84 91.604a3.592 3.592 0 0 0-1.35-.291c-1.391 0-2.173 1.245-2.173 2.53 0 1.205.649 2.529 2.252 2.529.424 0 .954-.133 1.338-.384L136 97.1c-.517.238-1.113.278-1.563.278-2.04 0-3.444-1.603-3.444-3.536 0-2.054 1.378-3.537 3.444-3.537.503 0 1.152.119 1.51.265l-.107 1.033M140.425 96.372c1.457 0 2.106-1.324 2.106-2.53 0-1.284-.781-2.53-2.106-2.53-1.337 0-2.12 1.246-2.12 2.53 0 1.206.65 2.53 2.12 2.53Zm0-6.066c2.054 0 3.43 1.483 3.43 3.537 0 1.933-1.403 3.536-3.43 3.536-2.04 0-3.443-1.603-3.443-3.536 0-2.054 1.377-3.537 3.443-3.537ZM145.515 90.465h1.165v.98h.027c.477-.781 1.152-1.14 2.145-1.14.782 0 1.563.398 1.92 1.312.464-.967 1.484-1.311 2.093-1.311 1.722 0 2.344 1.113 2.344 2.583v4.33h-1.244v-4.026c0-.834-.2-1.88-1.206-1.88-1.271 0-1.774 1.245-1.774 2.502v3.405h-1.245v-4.027c0-.834-.2-1.88-1.206-1.88-1.271 0-1.774 1.245-1.774 2.502v3.405h-1.245v-6.755M160.552 91.313c-1.351 0-2 1.285-2 2.542 0 1.126.583 2.517 1.987 2.517 1.337 0 1.894-1.497 1.867-2.557.027-1.217-.503-2.502-1.854-2.502Zm-3.245-.848h1.192v.954h.027c.33-.504 1.099-1.113 2.29-1.113 1.96 0 2.915 1.602 2.915 3.417 0 1.854-.861 3.656-2.901 3.656-1.192 0-1.867-.464-2.251-1.086h-.027V100h-1.245v-9.536ZM171.375 97.22h-1.205v-1.073h-.026c-.371.768-1.271 1.232-2.212 1.232-1.748 0-2.53-1.086-2.53-2.9v-4.014h1.246v3.497c0 1.576.344 2.344 1.43 2.41 1.417 0 2.052-1.14 2.052-2.781v-3.126h1.245v6.755M177.087 91.472H175.3v3.695c0 .78.477 1.205 1.046 1.205.384 0 .662-.12.848-.238v1.059c-.278.079-.662.186-1.06.186-1.285 0-2.08-.61-2.08-1.961v-3.946h-1.522v-1.007h1.523v-1.563l1.245-.397v1.96h1.787v1.007M183.023 93.193c0-1.033-.61-1.88-1.683-1.88-1.218 0-1.721 1.006-1.814 1.88h3.497Zm.808 3.748c-.477.172-1.02.438-2.133.438-2.397 0-3.496-1.457-3.496-3.656 0-2 1.257-3.417 3.165-3.417 2.252 0 2.98 1.642 2.98 3.814h-4.821a2.21 2.21 0 0 0 2.225 2.252c.82 0 1.775-.424 2.08-.676v1.245ZM186.019 90.465h1.166v1.047h.026c.33-.702 1.046-1.206 1.76-1.206.372 0 .558.04.822.092v1.114a1.829 1.829 0 0 0-.688-.12c-1.112 0-1.841 1.059-1.841 2.755v3.073h-1.245v-6.755M194.354 95.896c.489.317 1.19.476 1.549.476.57 0 1.27-.238 1.27-.967 0-1.231-2.925-1.126-2.925-3.02 0-1.404 1.046-2.08 2.383-2.08.583 0 1.06.12 1.55.266l-.105 1.086c-.28-.173-1.021-.344-1.312-.344-.636 0-1.192.264-1.192.82 0 1.379 2.928.98 2.928 3.139 0 1.445-1.153 2.107-2.358 2.107-.636 0-1.285-.066-1.854-.371l.066-1.112M204.302 91.604a3.592 3.592 0 0 0-1.35-.291c-1.391 0-2.172 1.245-2.172 2.53 0 1.205.648 2.529 2.25 2.529.425 0 .955-.133 1.339-.384l.092 1.113c-.516.238-1.112.278-1.562.278-2.04 0-3.444-1.603-3.444-3.536 0-2.054 1.378-3.537 3.444-3.537.503 0 1.152.119 1.51.265l-.107 1.033M206.053 97.22h1.245v-6.755h-1.245v6.755Zm-.08-8.265h1.404V87.55h-1.404v1.404ZM213.949 93.193c0-1.033-.61-1.88-1.683-1.88-1.22 0-1.722 1.006-1.814 1.88h3.497Zm.807 3.748c-.476.172-1.02.438-2.132.438-2.397 0-3.497-1.457-3.497-3.656 0-2 1.258-3.417 3.165-3.417 2.252 0 2.98 1.642 2.98 3.814h-4.82a2.21 2.21 0 0 0 2.225 2.252c.82 0 1.775-.424 2.079-.676v1.245ZM216.945 90.465h1.205v1.073h.026c.37-.768 1.272-1.232 2.212-1.232 1.748 0 2.53 1.087 2.53 2.9v4.014h-1.245v-3.497c0-1.576-.344-2.344-1.43-2.41-1.417 0-2.053 1.138-2.053 2.78v3.127h-1.245v-6.755M229.33 91.604a3.601 3.601 0 0 0-1.35-.291c-1.391 0-2.172 1.245-2.172 2.53 0 1.205.649 2.529 2.25 2.529.425 0 .955-.133 1.339-.384l.093 1.113c-.517.238-1.113.278-1.563.278-2.04 0-3.444-1.603-3.444-3.536 0-2.054 1.378-3.537 3.444-3.537.503 0 1.153.119 1.51.265l-.106 1.033M235.293 93.193c0-1.033-.61-1.88-1.682-1.88-1.22 0-1.722 1.006-1.815 1.88h3.497Zm.808 3.748c-.476.172-1.02.438-2.133.438-2.396 0-3.496-1.457-3.496-3.656 0-2 1.258-3.417 3.165-3.417 2.252 0 2.98 1.642 2.98 3.814h-4.821a2.211 2.211 0 0 0 2.226 2.252c.82 0 1.774-.424 2.079-.676v1.245ZM242.132 97.22h1.245v-6.755h-1.245v6.755Zm-.08-8.265h1.405V87.55h-1.405v1.404ZM245.657 90.465h1.205v1.073h.026c.37-.768 1.272-1.232 2.212-1.232 1.749 0 2.53 1.087 2.53 2.9v4.014h-1.245v-3.497c0-1.576-.344-2.344-1.43-2.41-1.417 0-2.053 1.138-2.053 2.78v3.127h-1.245v-6.755M261.025 91.472h-1.787v3.695c0 .78.476 1.205 1.046 1.205.383 0 .662-.12.847-.238v1.059c-.278.079-.662.186-1.06.186-1.284 0-2.078-.61-2.078-1.961v-3.946h-1.524v-1.007h1.524v-1.563l1.245-.397v1.96h1.787v1.007M262.59 87.286h1.245v4.146h.027c.45-.715 1.23-1.126 2.172-1.126 1.749 0 2.53 1.087 2.53 2.9v4.014h-1.245v-3.497c0-1.576-.345-2.344-1.431-2.41-1.417 0-2.053 1.138-2.053 2.78v3.127h-1.245v-9.934M275.057 93.193c0-1.033-.61-1.88-1.682-1.88-1.22 0-1.722 1.006-1.815 1.88h3.497Zm.808 3.748c-.477.172-1.02.438-2.133.438-2.397 0-3.496-1.457-3.496-3.656 0-2 1.258-3.417 3.165-3.417 2.252 0 2.98 1.642 2.98 3.814h-4.821a2.211 2.211 0 0 0 2.226 2.252c.82 0 1.774-.424 2.079-.676v1.245ZM281.84 87.975h1.803l4.079 7.443h.027v-7.443h1.325v9.245h-1.696l-4.185-7.603h-.027v7.603h-1.325v-9.245M295.673 93.193c0-1.033-.61-1.88-1.682-1.88-1.22 0-1.722 1.006-1.815 1.88h3.497Zm.808 3.748c-.477.172-1.02.438-2.133.438-2.396 0-3.496-1.457-3.496-3.656 0-2 1.258-3.417 3.165-3.417 2.252 0 2.98 1.642 2.98 3.814h-4.821a2.211 2.211 0 0 0 2.226 2.252c.82 0 1.774-.424 2.079-.676v1.245ZM302.258 91.472h-1.788v3.695c0 .78.478 1.205 1.047 1.205.384 0 .662-.12.848-.238v1.059c-.28.079-.662.186-1.06.186-1.285 0-2.08-.61-2.08-1.961v-3.946h-1.522v-1.007h1.523v-1.563l1.244-.397v1.96h1.788v1.007M303.824 87.286h1.245v4.146h.026c.45-.715 1.232-1.126 2.172-1.126 1.748 0 2.53 1.087 2.53 2.9v4.014h-1.245v-3.497c0-1.576-.344-2.344-1.43-2.41-1.417 0-2.053 1.138-2.053 2.78v3.127h-1.245v-9.934M316.29 93.193c0-1.033-.61-1.88-1.682-1.88-1.22 0-1.722 1.006-1.815 1.88h3.498Zm.808 3.748c-.476.172-1.02.438-2.133.438-2.396 0-3.496-1.457-3.496-3.656 0-2 1.258-3.417 3.165-3.417 2.252 0 2.98 1.642 2.98 3.814h-4.821a2.211 2.211 0 0 0 2.226 2.252c.82 0 1.774-.424 2.079-.676v1.245ZM319.287 90.465h1.166v1.047h.026c.33-.702 1.046-1.206 1.76-1.206.372 0 .557.04.822.092v1.114a1.836 1.836 0 0 0-.688-.12c-1.113 0-1.841 1.059-1.841 2.755v3.073h-1.245v-6.755M324.599 97.22h1.245v-9.934h-1.245zM332.136 94c-.264 0-.53-.025-.794-.025-.676 0-2.344.106-2.344 1.297 0 .716.688 1.1 1.258 1.1 1.232 0 1.88-.768 1.88-1.774V94Zm-3.695-3.06c.623-.37 1.364-.634 2.225-.634 1.934 0 2.715.954 2.715 2.795v2.795c0 .767.027 1.126.054 1.324h-1.166v-.874h-.026c-.291.41-.954 1.033-2.093 1.033-1.457 0-2.477-.636-2.477-2.107 0-1.695 1.855-2.224 3.139-2.224.49 0 .835 0 1.324.026 0-1.166-.424-1.761-1.668-1.761-.702 0-1.457.264-1.961.688l-.066-1.06ZM335.49 90.465h1.206v1.073h.026c.37-.768 1.272-1.232 2.212-1.232 1.749 0 2.53 1.087 2.53 2.9v4.014h-1.245v-3.497c0-1.576-.344-2.344-1.43-2.41-1.417 0-2.053 1.138-2.053 2.78v3.127h-1.245v-6.755M346.328 96.372c1.404 0 1.987-1.391 1.987-2.517 0-1.257-.65-2.542-2-2.542-1.351 0-1.881 1.27-1.855 2.502-.026 1.06.53 2.557 1.868 2.557Zm2.04-.106h-.027c-.331.504-1.1 1.113-2.304 1.113-2.04 0-2.901-1.815-2.901-3.656 0-1.815.953-3.417 2.914-3.417 1.179 0 1.854.464 2.239 1.087h.026v-4.107h1.245v9.934h-1.192v-.954ZM351.179 95.896c.489.317 1.192.476 1.549.476.57 0 1.272-.238 1.272-.967 0-1.231-2.927-1.126-2.927-3.02 0-1.404 1.047-2.08 2.384-2.08.583 0 1.059.12 1.549.266l-.105 1.086c-.278-.173-1.021-.344-1.312-.344-.635 0-1.192.264-1.192.82 0 1.379 2.928.98 2.928 3.139 0 1.445-1.153 2.107-2.358 2.107-.635 0-1.285-.066-1.854-.371l.066-1.112" fill="#131514"/>
  </g>
</svg>
